{
	"patcher" : 	{
		"fileversion" : 1,
		"appversion" : 		{
			"major" : 8,
			"minor" : 1,
			"revision" : 7,
			"architecture" : "x64",
			"modernui" : 1
		}
,
		"classnamespace" : "box",
		"rect" : [ 34.0, 79.0, 462.0, 787.0 ],
		"bglocked" : 0,
		"openinpresentation" : 1,
		"default_fontsize" : 12.0,
		"default_fontface" : 0,
		"default_fontname" : "Arial",
		"gridonopen" : 1,
		"gridsize" : [ 15.0, 15.0 ],
		"gridsnaponopen" : 1,
		"objectsnaponopen" : 1,
		"statusbarvisible" : 2,
		"toolbarvisible" : 1,
		"lefttoolbarpinned" : 0,
		"toptoolbarpinned" : 0,
		"righttoolbarpinned" : 0,
		"bottomtoolbarpinned" : 0,
		"toolbars_unpinned_last_save" : 0,
		"tallnewobj" : 0,
		"boxanimatetime" : 200,
		"enablehscroll" : 1,
		"enablevscroll" : 1,
		"devicewidth" : 0.0,
		"description" : "",
		"digest" : "",
		"tags" : "",
		"style" : "",
		"subpatcher_template" : "",
		"assistshowspatchername" : 0,
		"boxes" : [ 			{
				"box" : 				{
					"id" : "obj-151",
					"maxclass" : "comment",
					"numinlets" : 1,
					"numoutlets" : 0,
					"patching_rect" : [ 258.0, 362.5, 53.0, 20.0 ],
					"presentation" : 1,
					"presentation_rect" : [ 284.0, 3.666662216186523, 46.666668057441711, 20.0 ],
					"text" : "UNDO"
				}

			}
, 			{
				"box" : 				{
					"id" : "obj-152",
					"maxclass" : "button",
					"numinlets" : 1,
					"numoutlets" : 1,
					"outlettype" : [ "bang" ],
					"parameter_enable" : 0,
					"patching_rect" : [ 230.0, 362.5, 24.0, 24.0 ],
					"presentation" : 1,
					"presentation_rect" : [ 258.0, 1.666662216186523, 24.0, 24.0 ]
				}

			}
, 			{
				"box" : 				{
					"id" : "obj-149",
					"maxclass" : "comment",
					"numinlets" : 1,
					"numoutlets" : 0,
					"patching_rect" : [ 167.0, 362.5, 53.0, 20.0 ],
					"presentation" : 1,
					"presentation_rect" : [ 405.0, 3.666662216186523, 51.666668057441711, 20.0 ],
					"text" : "RESET"
				}

			}
, 			{
				"box" : 				{
					"id" : "obj-150",
					"maxclass" : "button",
					"numinlets" : 1,
					"numoutlets" : 1,
					"outlettype" : [ "bang" ],
					"parameter_enable" : 0,
					"patching_rect" : [ 139.0, 362.5, 24.0, 24.0 ],
					"presentation" : 1,
					"presentation_rect" : [ 377.0, 1.666662216186523, 24.0, 24.0 ]
				}

			}
, 			{
				"box" : 				{
					"id" : "obj-99",
					"maxclass" : "message",
					"numinlets" : 2,
					"numoutlets" : 1,
					"outlettype" : [ "" ],
					"patching_rect" : [ 230.0, 407.5, 35.0, 22.0 ],
					"text" : "undo"
				}

			}
, 			{
				"box" : 				{
					"id" : "obj-1705",
					"maxclass" : "newobj",
					"numinlets" : 1,
					"numoutlets" : 1,
					"outlettype" : [ "bang" ],
					"patching_rect" : [ 74.0, 362.5, 58.0, 22.0 ],
					"text" : "loadbang"
				}

			}
, 			{
				"box" : 				{
					"id" : "obj-1357",
					"linecount" : 2,
					"maxclass" : "comment",
					"numinlets" : 1,
					"numoutlets" : 0,
					"patching_rect" : [ 36.0, 403.0, 96.0, 33.0 ],
					"presentation" : 1,
					"presentation_rect" : [ 40.333334565162659, 3.666662216186523, 179.666665434837341, 20.0 ],
					"text" : "ADD MAPPING CONTROLLER"
				}

			}
, 			{
				"box" : 				{
					"id" : "obj-41",
					"maxclass" : "message",
					"numinlets" : 2,
					"numoutlets" : 1,
					"outlettype" : [ "" ],
					"patching_rect" : [ 139.0, 407.5, 35.0, 22.0 ],
					"text" : "reset"
				}

			}
, 			{
				"box" : 				{
					"id" : "obj-15",
					"maxclass" : "button",
					"numinlets" : 1,
					"numoutlets" : 1,
					"outlettype" : [ "bang" ],
					"parameter_enable" : 0,
					"patching_rect" : [ 10.0, 407.5, 24.0, 24.0 ],
					"presentation" : 1,
					"presentation_rect" : [ 12.333327531814575, 1.666662216186523, 24.0, 24.0 ]
				}

			}
, 			{
				"box" : 				{
					"id" : "obj-2",
					"maxclass" : "newobj",
					"numinlets" : 1,
					"numoutlets" : 1,
					"outlettype" : [ "" ],
					"patching_rect" : [ 10.0, 460.5, 114.0, 22.0 ],
					"saved_object_attributes" : 					{
						"filename" : "mapper-display.js",
						"parameter_enable" : 0
					}
,
					"text" : "js mapper-display.js"
				}

			}
, 			{
				"box" : 				{
					"id" : "obj-1",
					"maxclass" : "newobj",
					"numinlets" : 2,
					"numoutlets" : 1,
					"outlettype" : [ "" ],
					"patching_rect" : [ 10.0, 280.0, 100.0, 22.0 ],
					"text" : "sprintf %s %ld"
				}

			}
, 			{
				"box" : 				{
					"id" : "obj-3",
					"maxclass" : "newobj",
					"numinlets" : 1,
					"numoutlets" : 0,
					"patching_rect" : [ 10.0, 310.0, 104.0, 22.0 ],
					"text" : "send ---displayVal"
				}

			}
, 			{
				"box" : 				{
					"id" : "obj-4",
					"maxclass" : "newobj",
					"numinlets" : 1,
					"numoutlets" : 0,
					"patching_rect" : [ 130.0, 310.0, 138.0, 22.0 ],
					"text" : "udpsend 127.0.0.1 9999"
				}

			}
, 			{
				"box" : 				{
					"id" : "obj-5",
					"maxclass" : "newobj",
					"numinlets" : 2,
					"numoutlets" : 1,
					"outlettype" : [ "" ],
					"patching_rect" : [ 10.0, 280.0, 100.0, 22.0 ],
					"text" : "sprintf %s %ld"
				}

			}
, 			{
				"box" : 				{
					"id" : "obj-6",
					"maxclass" : "newobj",
					"numinlets" : 1,
					"numoutlets" : 0,
					"patching_rect" : [ 10.0, 310.0, 104.0, 22.0 ],
					"text" : "send ---displayVal"
				}

			}
, 			{
				"box" : 				{
					"id" : "obj-7",
					"maxclass" : "newobj",
					"numinlets" : 1,
					"numoutlets" : 0,
					"patching_rect" : [ 130.0, 310.0, 138.0, 22.0 ],
					"text" : "udpsend 127.0.0.1 9999"
				}

			}
, 			{
				"box" : 				{
					"id" : "obj-1612",
					"maxclass" : "newobj",
					"numinlets" : 2,
					"numoutlets" : 1,
					"outlettype" : [ "" ],
					"patching_rect" : [ 10.0, 280.0, 100.0, 22.0 ],
					"text" : "sprintf %s %ld"
				}

			}
, 			{
				"box" : 				{
					"id" : "obj-1613",
					"maxclass" : "newobj",
					"numinlets" : 1,
					"numoutlets" : 0,
					"patching_rect" : [ 10.0, 310.0, 104.0, 22.0 ],
					"text" : "send ---displayVal"
				}

			}
, 			{
				"box" : 				{
					"id" : "obj-555",
					"maxclass" : "live.dial",
					"numinlets" : 1,
					"numoutlets" : 2,
					"outlettype" : [ "", "float" ],
					"parameter_enable" : 1,
					"patching_rect" : [ 10.0, 10.0, 50.0, 48.0 ],
					"presentation" : 1,
					"presentation_rect" : [ 35.0, 30.0, 50.0, 48.0 ],
					"saved_attribute_attributes" : 					{
						"valueof" : 						{
							"parameter_longname" : "live.dial",
							"parameter_shortname" : "live.dial",
							"parameter_type" : 0,
							"parameter_unitstyle" : 0
						}

					}
,
					"varname" : "live.dial"
				}

			}
, 			{
				"box" : 				{
					"id" : "obj-556",
					"maxclass" : "newobj",
					"numinlets" : 1,
					"numoutlets" : 2,
					"outlettype" : [ "bang", "int" ],
					"patching_rect" : [ 10.0, 70.0, 100.0, 22.0 ],
					"text" : "t b i"
				}

			}
, 			{
				"box" : 				{
					"id" : "obj-558",
					"keymode" : 1,
					"lines" : 1,
					"maxclass" : "textedit",
					"numinlets" : 1,
					"numoutlets" : 4,
					"outlettype" : [ "", "int", "", "" ],
					"parameter_enable" : 0,
					"patching_rect" : [ 10.0, 100.0, 100.0, 25.0 ],
					"presentation" : 1,
					"presentation_rect" : [ 10.0, 80.0, 100.0, 25.0 ]
				}

			}
, 			{
				"box" : 				{
					"id" : "obj-559",
					"maxclass" : "newobj",
					"numinlets" : 2,
					"numoutlets" : 2,
					"outlettype" : [ "", "" ],
					"patching_rect" : [ 10.0, 130.0, 100.0, 22.0 ],
					"text" : "route text"
				}

			}
, 			{
				"box" : 				{
					"fontname" : "Arial",
					"fontsize" : 10.0,
					"id" : "obj-560",
					"maxclass" : "message",
					"numinlets" : 2,
					"numoutlets" : 1,
					"outlettype" : [ "" ],
					"patching_rect" : [ 10.0, 160.0, 126.0, 20.0 ],
					"text" : "_parameter_shortname $1"
				}

			}
, 			{
				"box" : 				{
					"id" : "obj-562",
					"maxclass" : "live.dial",
					"numinlets" : 1,
					"numoutlets" : 2,
					"outlettype" : [ "", "float" ],
					"parameter_enable" : 1,
					"patching_rect" : [ 120.0, 10.0, 50.0, 48.0 ],
					"presentation" : 1,
					"presentation_rect" : [ 145.0, 30.0, 50.0, 48.0 ],
					"saved_attribute_attributes" : 					{
						"valueof" : 						{
							"parameter_longname" : "live.dial[1]",
							"parameter_shortname" : "live.dial[1]",
							"parameter_type" : 0,
							"parameter_unitstyle" : 0
						}

					}
,
					"varname" : "live.dial[1]"
				}

			}
, 			{
				"box" : 				{
					"id" : "obj-563",
					"maxclass" : "newobj",
					"numinlets" : 1,
					"numoutlets" : 2,
					"outlettype" : [ "bang", "int" ],
					"patching_rect" : [ 120.0, 70.0, 100.0, 22.0 ],
					"text" : "t b i"
				}

			}
, 			{
				"box" : 				{
					"id" : "obj-565",
					"keymode" : 1,
					"lines" : 1,
					"maxclass" : "textedit",
					"numinlets" : 1,
					"numoutlets" : 4,
					"outlettype" : [ "", "int", "", "" ],
					"parameter_enable" : 0,
					"patching_rect" : [ 120.0, 100.0, 100.0, 25.0 ],
					"presentation" : 1,
					"presentation_rect" : [ 120.0, 80.0, 100.0, 25.0 ]
				}

			}
, 			{
				"box" : 				{
					"id" : "obj-566",
					"maxclass" : "newobj",
					"numinlets" : 2,
					"numoutlets" : 2,
					"outlettype" : [ "", "" ],
					"patching_rect" : [ 120.0, 130.0, 100.0, 22.0 ],
					"text" : "route text"
				}

			}
, 			{
				"box" : 				{
					"fontname" : "Arial",
					"fontsize" : 10.0,
					"id" : "obj-567",
					"maxclass" : "message",
					"numinlets" : 2,
					"numoutlets" : 1,
					"outlettype" : [ "" ],
					"patching_rect" : [ 120.0, 160.0, 126.0, 20.0 ],
					"text" : "_parameter_shortname $1"
				}

			}
, 			{
				"box" : 				{
					"id" : "obj-569",
					"maxclass" : "live.dial",
					"numinlets" : 1,
					"numoutlets" : 2,
					"outlettype" : [ "", "float" ],
					"parameter_enable" : 1,
					"patching_rect" : [ 230.0, 10.0, 50.0, 48.0 ],
					"presentation" : 1,
					"presentation_rect" : [ 255.0, 30.0, 50.0, 48.0 ],
					"saved_attribute_attributes" : 					{
						"valueof" : 						{
							"parameter_longname" : "live.dial[2]",
							"parameter_shortname" : "live.dial[2]",
							"parameter_type" : 0,
							"parameter_unitstyle" : 0
						}

					}
,
					"varname" : "live.dial[2]"
				}

			}
, 			{
				"box" : 				{
					"id" : "obj-570",
					"maxclass" : "newobj",
					"numinlets" : 1,
					"numoutlets" : 2,
					"outlettype" : [ "bang", "int" ],
					"patching_rect" : [ 230.0, 70.0, 100.0, 22.0 ],
					"text" : "t b i"
				}

			}
, 			{
				"box" : 				{
					"id" : "obj-572",
					"keymode" : 1,
					"lines" : 1,
					"maxclass" : "textedit",
					"numinlets" : 1,
					"numoutlets" : 4,
					"outlettype" : [ "", "int", "", "" ],
					"parameter_enable" : 0,
					"patching_rect" : [ 230.0, 100.0, 100.0, 25.0 ],
					"presentation" : 1,
					"presentation_rect" : [ 230.0, 80.0, 100.0, 25.0 ]
				}

			}
, 			{
				"box" : 				{
					"id" : "obj-573",
					"maxclass" : "newobj",
					"numinlets" : 2,
					"numoutlets" : 2,
					"outlettype" : [ "", "" ],
					"patching_rect" : [ 230.0, 130.0, 100.0, 22.0 ],
					"text" : "route text"
				}

			}
, 			{
				"box" : 				{
					"fontname" : "Arial",
					"fontsize" : 10.0,
					"id" : "obj-574",
					"maxclass" : "message",
					"numinlets" : 2,
					"numoutlets" : 1,
					"outlettype" : [ "" ],
					"patching_rect" : [ 230.0, 160.0, 126.0, 20.0 ],
					"text" : "_parameter_shortname $1"
				}

			}
, 			{
				"box" : 				{
					"id" : "obj-576",
					"maxclass" : "live.dial",
					"numinlets" : 1,
					"numoutlets" : 2,
					"outlettype" : [ "", "float" ],
					"parameter_enable" : 1,
					"patching_rect" : [ 340.0, 10.0, 50.0, 48.0 ],
					"presentation" : 1,
					"presentation_rect" : [ 365.0, 30.0, 50.0, 48.0 ],
					"saved_attribute_attributes" : 					{
						"valueof" : 						{
							"parameter_longname" : "live.dial[3]",
							"parameter_shortname" : "live.dial[3]",
							"parameter_type" : 0,
							"parameter_unitstyle" : 0
						}

					}
,
					"varname" : "live.dial[3]"
				}

			}
, 			{
				"box" : 				{
					"id" : "obj-577",
					"maxclass" : "newobj",
					"numinlets" : 1,
					"numoutlets" : 2,
					"outlettype" : [ "bang", "int" ],
					"patching_rect" : [ 340.0, 70.0, 100.0, 22.0 ],
					"text" : "t b i"
				}

			}
, 			{
				"box" : 				{
					"id" : "obj-579",
					"keymode" : 1,
					"lines" : 1,
					"maxclass" : "textedit",
					"numinlets" : 1,
					"numoutlets" : 4,
					"outlettype" : [ "", "int", "", "" ],
					"parameter_enable" : 0,
					"patching_rect" : [ 340.0, 100.0, 100.0, 25.0 ],
					"presentation" : 1,
					"presentation_rect" : [ 340.0, 80.0, 100.0, 25.0 ]
				}

			}
, 			{
				"box" : 				{
					"id" : "obj-580",
					"maxclass" : "newobj",
					"numinlets" : 2,
					"numoutlets" : 2,
					"outlettype" : [ "", "" ],
					"patching_rect" : [ 340.0, 130.0, 100.0, 22.0 ],
					"text" : "route text"
				}

			}
, 			{
				"box" : 				{
					"fontname" : "Arial",
					"fontsize" : 10.0,
					"id" : "obj-581",
					"maxclass" : "message",
					"numinlets" : 2,
					"numoutlets" : 1,
					"outlettype" : [ "" ],
					"patching_rect" : [ 340.0, 160.0, 126.0, 20.0 ],
					"text" : "_parameter_shortname $1"
				}

			}
, 			{
				"box" : 				{
					"id" : "obj-583",
					"maxclass" : "live.dial",
					"numinlets" : 1,
					"numoutlets" : 2,
					"outlettype" : [ "", "float" ],
					"parameter_enable" : 1,
					"patching_rect" : [ 450.0, 10.0, 50.0, 48.0 ],
					"presentation" : 1,
					"presentation_rect" : [ 35.0, 130.0, 50.0, 48.0 ],
					"saved_attribute_attributes" : 					{
						"valueof" : 						{
							"parameter_longname" : "live.dial[4]",
							"parameter_shortname" : "live.dial[4]",
							"parameter_type" : 0,
							"parameter_unitstyle" : 0
						}

					}
,
					"varname" : "live.dial[4]"
				}

			}
, 			{
				"box" : 				{
					"id" : "obj-584",
					"maxclass" : "newobj",
					"numinlets" : 1,
					"numoutlets" : 2,
					"outlettype" : [ "bang", "int" ],
					"patching_rect" : [ 450.0, 70.0, 100.0, 22.0 ],
					"text" : "t b i"
				}

			}
, 			{
				"box" : 				{
					"id" : "obj-586",
					"keymode" : 1,
					"lines" : 1,
					"maxclass" : "textedit",
					"numinlets" : 1,
					"numoutlets" : 4,
					"outlettype" : [ "", "int", "", "" ],
					"parameter_enable" : 0,
					"patching_rect" : [ 450.0, 100.0, 100.0, 25.0 ],
					"presentation" : 1,
					"presentation_rect" : [ 10.0, 180.0, 100.0, 25.0 ]
				}

			}
, 			{
				"box" : 				{
					"id" : "obj-587",
					"maxclass" : "newobj",
					"numinlets" : 2,
					"numoutlets" : 2,
					"outlettype" : [ "", "" ],
					"patching_rect" : [ 450.0, 130.0, 100.0, 22.0 ],
					"text" : "route text"
				}

			}
, 			{
				"box" : 				{
					"fontname" : "Arial",
					"fontsize" : 10.0,
					"id" : "obj-588",
					"maxclass" : "message",
					"numinlets" : 2,
					"numoutlets" : 1,
					"outlettype" : [ "" ],
					"patching_rect" : [ 450.0, 160.0, 126.0, 20.0 ],
					"text" : "_parameter_shortname $1"
				}

			}
, 			{
				"box" : 				{
					"id" : "obj-590",
					"maxclass" : "live.dial",
					"numinlets" : 1,
					"numoutlets" : 2,
					"outlettype" : [ "", "float" ],
					"parameter_enable" : 1,
					"patching_rect" : [ 560.0, 10.0, 50.0, 48.0 ],
					"presentation" : 1,
					"presentation_rect" : [ 145.0, 130.0, 50.0, 48.0 ],
					"saved_attribute_attributes" : 					{
						"valueof" : 						{
							"parameter_longname" : "live.dial[5]",
							"parameter_shortname" : "live.dial[5]",
							"parameter_type" : 0,
							"parameter_unitstyle" : 0
						}

					}
,
					"varname" : "live.dial[5]"
				}

			}
, 			{
				"box" : 				{
					"id" : "obj-591",
					"maxclass" : "newobj",
					"numinlets" : 1,
					"numoutlets" : 2,
					"outlettype" : [ "bang", "int" ],
					"patching_rect" : [ 560.0, 70.0, 100.0, 22.0 ],
					"text" : "t b i"
				}

			}
, 			{
				"box" : 				{
					"id" : "obj-593",
					"keymode" : 1,
					"lines" : 1,
					"maxclass" : "textedit",
					"numinlets" : 1,
					"numoutlets" : 4,
					"outlettype" : [ "", "int", "", "" ],
					"parameter_enable" : 0,
					"patching_rect" : [ 560.0, 100.0, 100.0, 25.0 ],
					"presentation" : 1,
					"presentation_rect" : [ 120.0, 180.0, 100.0, 25.0 ]
				}

			}
, 			{
				"box" : 				{
					"id" : "obj-594",
					"maxclass" : "newobj",
					"numinlets" : 2,
					"numoutlets" : 2,
					"outlettype" : [ "", "" ],
					"patching_rect" : [ 560.0, 130.0, 100.0, 22.0 ],
					"text" : "route text"
				}

			}
, 			{
				"box" : 				{
					"fontname" : "Arial",
					"fontsize" : 10.0,
					"id" : "obj-595",
					"maxclass" : "message",
					"numinlets" : 2,
					"numoutlets" : 1,
					"outlettype" : [ "" ],
					"patching_rect" : [ 560.0, 160.0, 126.0, 20.0 ],
					"text" : "_parameter_shortname $1"
				}

			}
 ],
		"lines" : [ 			{
				"patchline" : 				{
					"destination" : [ "obj-3", 0 ],
					"order" : 1,
					"source" : [ "obj-1", 0 ]
				}

			}
, 			{
				"patchline" : 				{
					"destination" : [ "obj-4", 0 ],
					"order" : 0,
					"source" : [ "obj-1", 0 ]
				}

			}
, 			{
				"patchline" : 				{
					"destination" : [ "obj-2", 0 ],
					"source" : [ "obj-15", 0 ]
				}

			}
, 			{
				"patchline" : 				{
					"destination" : [ "obj-41", 0 ],
					"source" : [ "obj-150", 0 ]
				}

			}
, 			{
				"patchline" : 				{
					"destination" : [ "obj-99", 0 ],
					"source" : [ "obj-152", 0 ]
				}

			}
, 			{
				"patchline" : 				{
					"destination" : [ "obj-1613", 0 ],
					"source" : [ "obj-1612", 0 ]
				}

			}
, 			{
				"patchline" : 				{
					"destination" : [ "obj-41", 0 ],
					"source" : [ "obj-1705", 0 ]
				}

			}
, 			{
				"patchline" : 				{
					"destination" : [ "obj-2", 0 ],
					"source" : [ "obj-41", 0 ]
				}

			}
, 			{
				"patchline" : 				{
					"destination" : [ "obj-6", 0 ],
					"order" : 1,
					"source" : [ "obj-5", 0 ]
				}

			}
, 			{
				"patchline" : 				{
					"destination" : [ "obj-7", 0 ],
					"order" : 0,
					"source" : [ "obj-5", 0 ]
				}

			}
, 			{
				"patchline" : 				{
					"destination" : [ "obj-556", 0 ],
					"source" : [ "obj-555", 0 ]
				}

			}
, 			{
				"patchline" : 				{
					"destination" : [ "obj-1", 1 ],
					"source" : [ "obj-556", 1 ]
				}

			}
, 			{
				"patchline" : 				{
					"destination" : [ "obj-558", 0 ],
					"source" : [ "obj-556", 0 ]
				}

			}
, 			{
				"patchline" : 				{
					"destination" : [ "obj-559", 0 ],
					"source" : [ "obj-558", 0 ]
				}

			}
, 			{
				"patchline" : 				{
					"destination" : [ "obj-1", 0 ],
					"order" : 0,
					"source" : [ "obj-559", 0 ]
				}

			}
, 			{
				"patchline" : 				{
					"destination" : [ "obj-560", 0 ],
					"order" : 1,
					"source" : [ "obj-559", 0 ]
				}

			}
, 			{
				"patchline" : 				{
					"destination" : [ "obj-555", 0 ],
					"source" : [ "obj-560", 0 ]
				}

			}
, 			{
				"patchline" : 				{
					"destination" : [ "obj-563", 0 ],
					"source" : [ "obj-562", 0 ]
				}

			}
, 			{
				"patchline" : 				{
					"destination" : [ "obj-1", 1 ],
					"source" : [ "obj-563", 1 ]
				}

			}
, 			{
				"patchline" : 				{
					"destination" : [ "obj-565", 0 ],
					"source" : [ "obj-563", 0 ]
				}

			}
, 			{
				"patchline" : 				{
					"destination" : [ "obj-566", 0 ],
					"source" : [ "obj-565", 0 ]
				}

			}
, 			{
				"patchline" : 				{
					"destination" : [ "obj-1", 0 ],
					"order" : 1,
					"source" : [ "obj-566", 0 ]
				}

			}
, 			{
				"patchline" : 				{
					"destination" : [ "obj-567", 0 ],
					"order" : 0,
					"source" : [ "obj-566", 0 ]
				}

			}
, 			{
				"patchline" : 				{
					"destination" : [ "obj-562", 0 ],
					"source" : [ "obj-567", 0 ]
				}

			}
, 			{
				"patchline" : 				{
					"destination" : [ "obj-570", 0 ],
					"source" : [ "obj-569", 0 ]
				}

			}
, 			{
				"patchline" : 				{
					"destination" : [ "obj-1", 1 ],
					"source" : [ "obj-570", 1 ]
				}

			}
, 			{
				"patchline" : 				{
					"destination" : [ "obj-572", 0 ],
					"source" : [ "obj-570", 0 ]
				}

			}
, 			{
				"patchline" : 				{
					"destination" : [ "obj-573", 0 ],
					"source" : [ "obj-572", 0 ]
				}

			}
, 			{
				"patchline" : 				{
					"destination" : [ "obj-1", 0 ],
					"order" : 1,
					"source" : [ "obj-573", 0 ]
				}

			}
, 			{
				"patchline" : 				{
					"destination" : [ "obj-574", 0 ],
					"order" : 0,
					"source" : [ "obj-573", 0 ]
				}

			}
, 			{
				"patchline" : 				{
					"destination" : [ "obj-569", 0 ],
					"source" : [ "obj-574", 0 ]
				}

			}
, 			{
				"patchline" : 				{
					"destination" : [ "obj-577", 0 ],
					"source" : [ "obj-576", 0 ]
				}

			}
, 			{
				"patchline" : 				{
					"destination" : [ "obj-1", 1 ],
					"source" : [ "obj-577", 1 ]
				}

			}
, 			{
				"patchline" : 				{
					"destination" : [ "obj-579", 0 ],
					"source" : [ "obj-577", 0 ]
				}

			}
, 			{
				"patchline" : 				{
					"destination" : [ "obj-580", 0 ],
					"source" : [ "obj-579", 0 ]
				}

			}
, 			{
				"patchline" : 				{
					"destination" : [ "obj-1", 0 ],
					"order" : 1,
					"source" : [ "obj-580", 0 ]
				}

			}
, 			{
				"patchline" : 				{
					"destination" : [ "obj-581", 0 ],
					"order" : 0,
					"source" : [ "obj-580", 0 ]
				}

			}
, 			{
				"patchline" : 				{
					"destination" : [ "obj-576", 0 ],
					"source" : [ "obj-581", 0 ]
				}

			}
, 			{
				"patchline" : 				{
					"destination" : [ "obj-584", 0 ],
					"source" : [ "obj-583", 0 ]
				}

			}
, 			{
				"patchline" : 				{
					"destination" : [ "obj-1", 1 ],
					"source" : [ "obj-584", 1 ]
				}

			}
, 			{
				"patchline" : 				{
					"destination" : [ "obj-586", 0 ],
					"source" : [ "obj-584", 0 ]
				}

			}
, 			{
				"patchline" : 				{
					"destination" : [ "obj-587", 0 ],
					"source" : [ "obj-586", 0 ]
				}

			}
, 			{
				"patchline" : 				{
					"destination" : [ "obj-1", 0 ],
					"order" : 1,
					"source" : [ "obj-587", 0 ]
				}

			}
, 			{
				"patchline" : 				{
					"destination" : [ "obj-588", 0 ],
					"order" : 0,
					"source" : [ "obj-587", 0 ]
				}

			}
, 			{
				"patchline" : 				{
					"destination" : [ "obj-583", 0 ],
					"source" : [ "obj-588", 0 ]
				}

			}
, 			{
				"patchline" : 				{
					"destination" : [ "obj-591", 0 ],
					"source" : [ "obj-590", 0 ]
				}

			}
, 			{
				"patchline" : 				{
					"destination" : [ "obj-1", 1 ],
					"source" : [ "obj-591", 1 ]
				}

			}
, 			{
				"patchline" : 				{
					"destination" : [ "obj-593", 0 ],
					"source" : [ "obj-591", 0 ]
				}

			}
, 			{
				"patchline" : 				{
					"destination" : [ "obj-594", 0 ],
					"source" : [ "obj-593", 0 ]
				}

			}
, 			{
				"patchline" : 				{
					"destination" : [ "obj-1", 0 ],
					"order" : 1,
					"source" : [ "obj-594", 0 ]
				}

			}
, 			{
				"patchline" : 				{
					"destination" : [ "obj-595", 0 ],
					"order" : 0,
					"source" : [ "obj-594", 0 ]
				}

			}
, 			{
				"patchline" : 				{
					"destination" : [ "obj-590", 0 ],
					"source" : [ "obj-595", 0 ]
				}

			}
, 			{
				"patchline" : 				{
					"destination" : [ "obj-2", 0 ],
					"source" : [ "obj-99", 0 ]
				}

			}
 ],
		"parameters" : 		{
			"obj-555" : [ "live.dial", "live.dial", 0 ],
			"obj-562" : [ "live.dial[1]", "live.dial[1]", 0 ],
			"obj-569" : [ "live.dial[2]", "live.dial[2]", 0 ],
			"obj-576" : [ "live.dial[3]", "live.dial[3]", 0 ],
			"obj-583" : [ "live.dial[4]", "live.dial[4]", 0 ],
			"obj-590" : [ "live.dial[5]", "live.dial[5]", 0 ],
			"parameterbanks" : 			{

			}
,
			"inherited_shortname" : 1
		}
,
		"dependency_cache" : [ 			{
				"name" : "mapper-display.js",
				"bootpath" : "~/Code/DSP/mrpanda/MappingDisplay",
				"patcherrelativepath" : ".",
				"type" : "TEXT",
				"implicit" : 1
			}
 ],
		"autosave" : 0
	}

}
